<svg width="11" height="7" viewBox="0 0 11 7" fill="none" xmlns="http://www.w3.org/2000/svg">
<path d="M10.8902 1.69946C10.8906 1.81773 10.8671 1.93459 10.8214 2.04145C10.7758 2.14831 10.7092 2.24245 10.6266 2.31696L6.35157 6.14071C6.22408 6.25715 6.06417 6.3208 5.89914 6.3208C5.7341 6.3208 5.57419 6.25715 5.4467 6.14071L1.1717 2.18238C1.02619 2.048 0.934692 1.8549 0.917321 1.64557C0.899951 1.43623 0.958135 1.2278 1.07907 1.06613C1.20001 0.904457 1.3738 0.802788 1.5622 0.783487C1.75061 0.764186 1.93819 0.828835 2.0837 0.963211L5.9027 4.50196L9.7217 1.08196C9.82628 0.985154 9.95364 0.92366 10.0887 0.904755C10.2237 0.88585 10.3608 0.910326 10.4838 0.975287C10.6067 1.04025 10.7103 1.14297 10.7823 1.27131C10.8544 1.39965 10.8918 1.54823 10.8902 1.69946Z" fill="black"/>
</svg>
