<svg width="22" height="22" viewBox="0 0 22 22" fill="none" xmlns="http://www.w3.org/2000/svg">
<path d="M11 12.6806C10.8998 12.6799 10.8011 12.6544 10.7109 12.6059L0.627615 7.31026C0.512129 7.24994 0.414481 7.15435 0.346083 7.03465C0.277685 6.91495 0.241364 6.77609 0.241364 6.6343C0.241364 6.49252 0.277685 6.35366 0.346083 6.23396C0.414481 6.11426 0.512129 6.01867 0.627615 5.95835L10.7109 0.662731C10.8003 0.616096 10.8979 0.591919 10.9966 0.591919C11.0954 0.591919 11.1929 0.616096 11.2823 0.662731L21.3657 5.95835C21.4812 6.01867 21.5788 6.11426 21.6472 6.23396C21.7156 6.35366 21.7519 6.49252 21.7519 6.6343C21.7519 6.77609 21.7156 6.91495 21.6472 7.03465C21.5788 7.15435 21.4812 7.24994 21.3657 7.31026L11.2823 12.6059C11.1942 12.6533 11.0979 12.6788 11 12.6806Z" fill="black"/>
<path d="M11 17.0948C10.8998 17.0942 10.8011 17.0686 10.7109 17.0201L0.627586 11.7469C0.546027 11.7064 0.472552 11.6482 0.411456 11.5758C0.35036 11.5034 0.302868 11.4182 0.271756 11.3251C0.240645 11.2321 0.226537 11.1331 0.230259 11.0339C0.23398 10.9347 0.255456 10.8374 0.29343 10.7475C0.331404 10.6577 0.385116 10.5771 0.451425 10.5106C0.517735 10.4441 0.595312 10.3929 0.679623 10.3601C0.763933 10.3273 0.853286 10.3135 0.94246 10.3195C1.03163 10.3254 1.11884 10.3511 1.19898 10.395L11 15.5263L20.7943 10.3801C20.875 10.3379 20.9625 10.3138 21.0516 10.3092C21.1408 10.3045 21.2299 10.3195 21.3138 10.3531C21.3978 10.3868 21.475 10.4384 21.541 10.5052C21.6069 10.572 21.6604 10.6526 21.6984 10.7423C21.7363 10.8321 21.758 10.9292 21.7622 11.0283C21.7663 11.1273 21.7529 11.2263 21.7226 11.3196C21.6924 11.4129 21.6458 11.4987 21.5857 11.572C21.5256 11.6453 21.4531 11.7047 21.3724 11.7469L11.289 17.0425C11.1973 17.0833 11.0986 17.1012 11 17.0948Z" fill="black"/>
<path d="M11 21.509C10.8999 21.5084 10.8011 21.4829 10.711 21.4343L0.627647 16.1387C0.469671 16.0523 0.348545 15.9004 0.290315 15.7157C0.232084 15.531 0.241399 15.3283 0.316257 15.1512C0.391116 14.9741 0.525538 14.8367 0.69062 14.7686C0.855702 14.7004 1.03826 14.707 1.19904 14.7868L11 19.9629L20.7943 14.8167C20.8745 14.7728 20.9617 14.7471 21.0508 14.7412C21.14 14.7352 21.2294 14.749 21.3137 14.7818C21.398 14.8146 21.4756 14.8658 21.5419 14.9323C21.6082 14.9988 21.6619 15.0794 21.6999 15.1692C21.7378 15.2591 21.7593 15.3564 21.763 15.4556C21.7668 15.5548 21.7526 15.6538 21.7215 15.7468C21.6904 15.8399 21.6429 15.9251 21.5818 15.9975C21.5207 16.0699 21.4473 16.1281 21.3657 16.1686L11.2891 21.4568C11.1974 21.4976 11.0987 21.5154 11 21.509V21.509Z" fill="black"/>
</svg>
