<svg width="22" height="22" viewBox="0 0 22 22" fill="none" xmlns="http://www.w3.org/2000/svg">
<path d="M20.109 2.93594H18.5079V1.18232C18.5079 0.858386 18.202 0.597778 17.8217 0.597778H0.895429C0.515159 0.597778 0.209229 0.858386 0.209229 1.18232V7.80712C0.209229 8.13105 0.515159 8.39166 0.895429 8.39166H17.8217C18.202 8.39166 18.5079 8.13105 18.5079 7.80712V4.49472H19.4228V9.36589H9.38716C8.75528 9.36589 8.24349 9.80186 8.24349 10.3401V13.6525H6.98546C6.85965 13.6525 6.75672 13.7402 6.75672 13.8474V19.4005C6.75672 19.4273 6.76244 19.4541 6.77388 19.476C6.76244 19.515 6.75672 19.554 6.75672 19.5954C6.75672 20.7255 7.83177 21.6413 9.15842 21.6413C10.4851 21.6413 11.5601 20.7255 11.5601 19.5954C11.5601 19.554 11.5544 19.515 11.543 19.476C11.5544 19.4517 11.5601 19.4273 11.5601 19.4005V13.8474C11.5601 13.7402 11.4572 13.6525 11.3314 13.6525H10.0734V10.9247H20.109C20.7409 10.9247 21.2527 10.4887 21.2527 9.95044V3.91018C21.2527 3.37191 20.7409 2.93594 20.109 2.93594Z" fill="black"/>
</svg>
