<svg width="22" height="22" viewBox="0 0 22 22" fill="none" xmlns="http://www.w3.org/2000/svg">
<path d="M11 0.6875C5.30511 0.6875 0.6875 5.30511 0.6875 11C0.6875 16.6949 5.30511 21.3125 11 21.3125C16.6949 21.3125 21.3125 16.6949 21.3125 11C21.3125 5.30511 16.6949 0.6875 11 0.6875ZM15.4196 11.5525C15.4196 11.6537 15.3368 11.7366 15.2355 11.7366H11.7366V15.2355C11.7366 15.3368 11.6537 15.4196 11.5525 15.4196H10.4475C10.3463 15.4196 10.2634 15.3368 10.2634 15.2355V11.7366H6.76451C6.66323 11.7366 6.58036 11.6537 6.58036 11.5525V10.4475C6.58036 10.3463 6.66323 10.2634 6.76451 10.2634H10.2634V6.76451C10.2634 6.66323 10.3463 6.58036 10.4475 6.58036H11.5525C11.6537 6.58036 11.7366 6.66323 11.7366 6.76451V10.2634H15.2355C15.3368 10.2634 15.4196 10.3463 15.4196 10.4475V11.5525Z" fill="black"/>
</svg>
