<svg width="22" height="22" viewBox="0 0 22 22" fill="none" xmlns="http://www.w3.org/2000/svg">
<path d="M10.7728 8.00469C11.5152 8.00469 12.2105 8.28991 12.7369 8.81118C13.2609 9.33245 13.5514 10.0209 13.5514 10.7561C13.5514 11.4913 13.2609 12.1798 12.7369 12.701C12.2105 13.2198 11.5152 13.5075 10.7728 13.5075C10.0303 13.5075 9.33504 13.2198 8.80862 12.701C8.28468 12.1798 7.99415 11.4913 7.99415 10.7561C7.99415 10.0209 8.28468 9.33245 8.80862 8.81118C9.06574 8.55462 9.37178 8.35121 9.70896 8.21276C10.0461 8.07431 10.4078 8.00358 10.7728 8.00469V8.00469ZM0.534819 13.7952L2.15879 12.4207C2.08181 11.9536 2.04208 11.4765 2.04208 11.002C2.04208 10.5274 2.08181 10.048 2.15879 9.58325L0.534819 8.20877C0.412142 8.10478 0.324339 7.96627 0.283088 7.81167C0.241837 7.65707 0.249093 7.49369 0.303888 7.34327L0.326235 7.27934C0.773167 6.04179 1.44284 4.89466 2.30281 3.89354L2.34751 3.84191C2.45193 3.72032 2.59111 3.63292 2.7467 3.59122C2.90229 3.54953 3.06698 3.55549 3.21908 3.60832L5.23539 4.31892C5.98033 3.71405 6.80969 3.23704 7.70859 2.9051L8.09844 0.817558C8.12785 0.660297 8.20489 0.515621 8.31932 0.402749C8.43376 0.289878 8.58016 0.214155 8.73909 0.185641L8.80613 0.173347C10.0974 -0.0577823 11.4581 -0.0577823 12.7493 0.173347L12.8164 0.185641C12.9753 0.214155 13.1217 0.289878 13.2362 0.402749C13.3506 0.515621 13.4276 0.660297 13.457 0.817558L13.8494 2.91493C14.7398 3.24952 15.5692 3.72537 16.3052 4.32384L18.3364 3.60832C18.4884 3.55507 18.6533 3.54889 18.8089 3.59061C18.9646 3.63234 19.1038 3.71998 19.208 3.84191L19.2527 3.89354C20.1111 4.89573 20.7806 6.04257 21.2292 7.27934L21.2516 7.34327C21.3633 7.65062 21.2715 7.99485 21.0207 8.20877L19.3768 9.59801C19.4538 10.0603 19.4911 10.5324 19.4911 10.9995C19.4911 11.4716 19.4538 11.9437 19.3768 12.4011L21.0157 13.7903C21.1384 13.8943 21.2262 14.0328 21.2674 14.1874C21.3087 14.342 21.3014 14.5054 21.2466 14.6558L21.2243 14.7197C20.7748 15.9565 20.1118 17.0999 19.2477 18.1055L19.203 18.1572C19.0986 18.2787 18.9594 18.3661 18.8038 18.4078C18.6482 18.4495 18.4835 18.4436 18.3314 18.3907L16.3002 17.6752C15.5603 18.2776 14.7359 18.7547 13.8444 19.0841L13.4521 21.1815C13.4227 21.3388 13.3456 21.4834 13.2312 21.5963C13.1168 21.7092 12.9704 21.7849 12.8114 21.8134L12.7444 21.8257C11.4405 22.0581 10.1051 22.0581 8.80117 21.8257L8.73412 21.8134C8.57519 21.7849 8.42879 21.7092 8.31436 21.5963C8.19993 21.4834 8.12289 21.3388 8.09347 21.1815L7.70362 19.094C6.80473 18.7596 5.97536 18.285 5.23042 17.6801L3.21412 18.3907C3.06207 18.444 2.89725 18.4502 2.74157 18.4085C2.58589 18.3667 2.44671 18.2791 2.34254 18.1572L2.29784 18.1055C1.43371 17.095 0.770716 15.9565 0.321269 14.7197L0.298921 14.6558C0.192147 14.3509 0.284023 14.0091 0.534819 13.7952ZM10.7728 15.0787C13.1839 15.0787 15.1381 13.1436 15.1381 10.7561C15.1381 8.3686 13.1839 6.4335 10.7728 6.4335C8.36165 6.4335 6.40743 8.3686 6.40743 10.7561C6.40743 13.1436 8.36165 15.0787 10.7728 15.0787Z" fill="black"/>
</svg>
